<svg width="29" height="18" viewBox="0 0 29 18" fill="none" xmlns="http://www.w3.org/2000/svg">
<path d="M26.26 0.0859375C26.8541 0.0859375 27.4238 0.321937 27.8439 0.742018C28.264 1.1621 28.5 1.73185 28.5 2.32594V4.81794C28.4999 5.15041 28.4073 5.4763 28.2325 5.75915C28.0578 6.042 27.8078 6.27065 27.5105 6.41954L27.408 6.46714C26.9088 6.67853 26.4817 7.03026 26.1785 7.47966C25.8752 7.92906 25.709 8.45681 25.6999 8.99885C25.6907 9.54089 25.8391 10.0739 26.127 10.5333C26.4149 10.9927 26.83 11.3586 27.3218 11.5867L27.4338 11.6359C27.7492 11.766 28.0189 11.9868 28.2087 12.2703C28.3986 12.5539 28.4999 12.8874 28.5 13.2286V15.7659C28.5 16.36 28.264 16.9298 27.8439 17.3499C27.4238 17.7699 26.8541 18.0059 26.26 18.0059H2.74C2.14592 18.0059 1.57616 17.7699 1.15608 17.3499C0.735999 16.9298 0.5 16.36 0.5 15.7659V13.3787C0.5 12.6495 0.906 11.9848 1.54664 11.6499L1.64968 11.5995C2.13244 11.3822 2.54371 11.0325 2.8358 10.5909C3.12789 10.1494 3.28883 9.63405 3.29997 9.10474C3.3111 8.57543 3.17198 8.05381 2.89872 7.60035C2.62546 7.1469 2.22927 6.78019 1.75608 6.54274L1.64408 6.48954C1.30341 6.33661 1.01418 6.08849 0.811208 5.77504C0.608237 5.46159 0.500166 5.09617 0.5 4.72274V2.32594C0.5 1.73185 0.735999 1.1621 1.15608 0.742018C1.57616 0.321937 2.14592 0.0859375 2.74 0.0859375H26.26ZM26.2387 2.01794H2.76128C2.61276 2.01794 2.47032 2.07694 2.3653 2.18196C2.26028 2.28698 2.20128 2.42942 2.20128 2.57794V4.32346C3.08076 4.75979 3.8209 5.43309 4.33827 6.26748C4.85564 7.10186 5.12969 8.06417 5.12952 9.04594C5.12964 10.0278 4.85551 10.9901 4.33803 11.8245C3.82056 12.6589 3.08031 13.3322 2.20072 13.7684V15.5139C2.20072 15.6625 2.25972 15.8049 2.36474 15.9099C2.46976 16.0149 2.6122 16.0739 2.76072 16.0739H26.2387C26.3872 16.0739 26.5297 16.0149 26.6347 15.9099C26.7397 15.8049 26.7987 15.6625 26.7987 15.5139V13.7684C25.9192 13.3321 25.1791 12.6588 24.6617 11.8244C24.1444 10.99 23.8703 10.0277 23.8705 9.04594C23.8704 8.06411 24.1445 7.10176 24.662 6.26737C25.1794 5.43298 25.9197 4.75971 26.7993 4.32346V2.57794C26.7993 2.42942 26.7403 2.28698 26.6353 2.18196C26.5302 2.07694 26.3872 2.01794 26.2387 2.01794ZM20.66 11.8459C21.1056 11.8459 21.5329 12.0229 21.8479 12.338C22.163 12.6531 22.34 13.0804 22.34 13.5259C22.34 13.9715 22.163 14.3988 21.8479 14.7139C21.5329 15.0289 21.1056 15.2059 20.66 15.2059C20.2144 15.2059 19.7871 15.0289 19.4721 14.7139C19.157 14.3988 18.98 13.9715 18.98 13.5259C18.98 13.0804 19.157 12.6531 19.4721 12.338C19.7871 12.0229 20.2144 11.8459 20.66 11.8459ZM20.66 7.36594C21.1056 7.36594 21.5329 7.54294 21.8479 7.858C22.163 8.17306 22.34 8.60037 22.34 9.04594C22.34 9.4915 22.163 9.91882 21.8479 10.2339C21.5329 10.5489 21.1056 10.7259 20.66 10.7259C20.2144 10.7259 19.7871 10.5489 19.4721 10.2339C19.157 9.91882 18.98 9.4915 18.98 9.04594C18.98 8.60037 19.157 8.17306 19.4721 7.858C19.7871 7.54294 20.2144 7.36594 20.66 7.36594ZM20.66 2.88594C21.1056 2.88594 21.5329 3.06294 21.8479 3.378C22.163 3.69306 22.34 4.12037 22.34 4.56594C22.34 5.0115 22.163 5.43882 21.8479 5.75388C21.5329 6.06894 21.1056 6.24594 20.66 6.24594C20.2144 6.24594 19.7871 6.06894 19.4721 5.75388C19.157 5.43882 18.98 5.0115 18.98 4.56594C18.98 4.12037 19.157 3.69306 19.4721 3.378C19.7871 3.06294 20.2144 2.88594 20.66 2.88594Z" fill="#E84526"/>
</svg>
